<?xml version="1.0" encoding="UTF-8"?>
<svg id="Camada_2" xmlns="http://www.w3.org/2000/svg" viewBox="0 0 128 128">
  <defs>
    <style>
      .cls-1 {
        fill: #fff;
      }

      .cls-2 {
        fill: #09f;
      }
    </style>
  </defs>
  <g id="Camada_-_Construção">
    <g>
      <rect class="cls-2" width="128" height="128" rx="20" ry="20"/>
      <path class="cls-1" d="M67,20.99c-5.76,0-10.5,4.09-11.49,9.58-1.1-.3-2.24-.46-3.42-.46-7.23,0-13.11,5.88-13.11,13.1s5.88,13.1,13.11,13.1c.55,0,1.08-.03,1.6-.1v7.91c0,.82-.18,1.66-.52,2.44l-12.36,28.27c-1.18,2.7-.91,5.79.7,8.25,1.61,2.46,4.34,3.93,7.28,3.93h30.21c2.95,0,5.67-1.47,7.28-3.94,1.61-2.47,1.86-5.55.68-8.24l-12.36-28.27c-.34-.77-.52-1.61-.52-2.44v-2.12c.3.02.6.04.9.04,7.74,0,14.03-6.29,14.03-14.03,0-6.41-4.45-12.02-10.49-13.56.09-.58.15-1.17.15-1.78,0-6.45-5.24-11.7-11.68-11.7ZM67,23.59c5,0,9.07,4.08,9.07,9.09,0,.46-.03.9-.1,1.34-.32-.03-.64-.04-.98-.04-.59,0-1.17.05-1.74.12-.18.02-.35.06-.53.09-.4.06-.79.14-1.18.24-.19.05-.38.1-.57.16-.38.11-.76.25-1.13.4-.16.06-.33.12-.49.19-.52.23-1.03.48-1.51.77,0,0-.02.01-.03.02-.48.28-.93.6-1.37.94-.14.11-.27.23-.41.34-.3.25-.6.52-.88.8-.14.14-.28.28-.42.43-.1.11-.21.2-.31.32-1.13-3.13-3.41-5.75-6.43-7.28.57-4.5,4.37-7.92,9.01-7.92ZM52.09,53.71c-5.79,0-10.5-4.71-10.5-10.5s4.71-10.5,10.5-10.5c1.42,0,2.77.27,4.02.8,0,0,0,0,0,0,0,0,0,0,0,0,3.42,1.43,5.81,4.55,6.34,8.2-.03.06-.06.11-.08.17,0,0-.01.01-.01.02,0,.02-.01.04-.02.06,0,0,0,.02-.01.02h0c-.75,1.57-1.18,3.23-1.31,4.94h-6.03s0,0,0,0h-4.58c-.72,0-1.3.58-1.3,1.3s.58,1.3,1.3,1.3h3.28v4.05c-.51.08-1.04.13-1.6.13ZM84.58,95.88c.83,1.89.65,4.04-.48,5.77-1.13,1.73-3.03,2.76-5.1,2.76h-30.21c-2.1,0-3.96-1-5.1-2.75-1.13-1.73-1.32-3.89-.49-5.78l12.36-28.26c.48-1.1.74-2.3.74-3.49v-14.6h4.76s0,.01,0,.02c.07.66.2,1.3.35,1.93.02.09.04.19.07.28.16.6.37,1.19.61,1.75.04.1.08.2.13.3.25.56.54,1.11.87,1.63.04.07.09.14.14.21.35.54.73,1.06,1.15,1.55,0,0,0,0,.01.01.42.49.89.95,1.38,1.37.05.05.1.09.15.14.48.4.98.77,1.51,1.11.08.05.17.11.25.16.53.32,1.08.61,1.66.87.09.04.18.07.27.11.6.25,1.21.46,1.85.63.01,0,.03.01.04.01v2.53c0,1.18.25,2.38.74,3.48l12.36,28.27ZM86.41,48.02c0,6.3-5.12,11.42-11.42,11.42-.64,0-1.28-.06-1.98-.19-5.4-.93-9.36-5.58-9.42-11.05,0-.1,0-.09-.02-.19,0-1.47.27-2.89.82-4.25.08-.04.16-.08.23-.14.34-.24.54-.64.54-1.05,0-.11,0-.22-.01-.33.11-.19.24-.38.36-.56.13-.19.25-.39.39-.57.17-.22.36-.43.54-.64.15-.17.29-.34.44-.5.2-.2.42-.38.63-.57.16-.14.32-.29.49-.42.23-.18.47-.33.71-.49.17-.12.34-.24.53-.35.25-.15.52-.27.78-.4.18-.09.36-.19.55-.27.28-.12.57-.21.86-.3.18-.06.36-.13.55-.19.33-.09.66-.15,1-.21.16-.03.32-.07.48-.1.5-.07,1.01-.1,1.52-.1.63,0,1.2.05,1.8.17,5.49.83,9.62,5.67,9.62,11.25Z"/>
    </g>
  </g>
</svg>