<?xml version="1.0" encoding="UTF-8"?>
<svg id="Camada_2" xmlns="http://www.w3.org/2000/svg" viewBox="0 0 128 128">
  <defs>
    <style>
      .cls-1 {
        fill: #fff;
      }

      .cls-2 {
        fill: #09f;
      }
    </style>
  </defs>
  <g id="Camada_-_Construção">
    <g>
      <rect class="cls-2" width="128" height="128" rx="20" ry="20"/>
      <g>
        <path class="cls-1" d="M106.55,92H21.45c-3.44,0-6.25-2.8-6.25-6.25V26.82c0-3.44,2.8-6.25,6.25-6.25h85.1c3.44,0,6.25,2.8,6.25,6.25v58.93c0,3.44-2.8,6.25-6.25,6.25ZM21.45,22.43c-2.42,0-4.39,1.97-4.39,4.39v58.93c0,2.42,1.97,4.39,4.39,4.39h85.1c2.42,0,4.39-1.97,4.39-4.39V26.82c0-2.42-1.97-4.39-4.39-4.39H21.45Z"/>
        <path class="cls-1" d="M71.87,107.43h-15.75c-.25,0-.49-.1-.67-.28s-.27-.42-.26-.68l.53-15.43c.02-.5.43-.9.93-.9h14.68c.5,0,.91.4.93.9l.53,15.43c0,.25-.09.5-.26.68s-.42.28-.67.28ZM57.09,105.57h13.83l-.47-13.57h-12.89l-.47,13.57Z"/>
        <path class="cls-1" d="M81.48,107.43h-34.96c-.51,0-.93-.42-.93-.93s.42-.93.93-.93h34.96c.51,0,.93.42.93.93s-.42.93-.93.93Z"/>
        <g>
          <path class="cls-1" d="M91.87,72.67h-55.74c-.51,0-.93-.42-.93-.93s.42-.93.93-.93h55.74c.51,0,.93.42.93.93s-.42.93-.93.93Z"/>
          <path class="cls-1" d="M60.12,81.33h-20.94c-.51,0-.93-.42-.93-.93s.42-.93.93-.93h20.94c.51,0,.93.42.93.93s-.42.93-.93.93Z"/>
          <path class="cls-1" d="M88.82,81.33h-20.94c-.51,0-.93-.42-.93-.93s.42-.93.93-.93h20.94c.51,0,.93.42.93.93s-.42.93-.93.93Z"/>
          <g>
            <path class="cls-1" d="M73.92,57.01c-.28,0-.56-.13-.74-.37-.31-.41-.22-.99.19-1.3l10.06-7.47-10.06-7.47c-.41-.31-.5-.89-.19-1.3.31-.41.89-.5,1.3-.19l11.06,8.21c.24.17.37.45.37.74s-.14.57-.37.74l-11.06,8.21c-.17.12-.36.18-.55.18Z"/>
            <path class="cls-1" d="M54.08,57.01c-.19,0-.39-.06-.55-.18l-11.06-8.21c-.24-.17-.37-.45-.37-.74s.14-.57.37-.74l11.06-8.21c.41-.31.99-.22,1.3.19.31.41.22.99-.19,1.3l-10.06,7.47,10.06,7.47c.41.31.5.89.19,1.3-.18.24-.46.37-.74.37Z"/>
            <path class="cls-1" d="M61.51,64.49s-.1,0-.15-.01c-.51-.08-.85-.56-.77-1.06l4.98-31.39c.08-.51.56-.85,1.06-.77.51.08.85.56.77,1.06l-4.98,31.39c-.07.46-.47.78-.91.78Z"/>
          </g>
        </g>
      </g>
    </g>
  </g>
</svg>