<?xml version="1.0" encoding="UTF-8"?>
<svg id="Camada_2" xmlns="http://www.w3.org/2000/svg" viewBox="0 0 128 128">
  <defs>
    <style>
      .cls-1 {
        fill: #fff;
      }

      .cls-2 {
        fill: #09f;
      }
    </style>
  </defs>
  <g id="Camada_-_Construção">
    <g>
      <rect class="cls-2" width="128" height="128" rx="20" ry="20"/>
      <path class="cls-1" d="M95.3,22.54l-7.42,7.42c-5.48-1.85-11.56-.48-15.71,3.67-2.07,2.07-3.5,4.67-4.13,7.5-.26,1.13-.35,2.3-.35,3.47l-4.77,3.65-1.86-2.4c-.43-.56-1.22-.67-1.79-.26l-12.65,9.16c-.29.21-.48.53-.53.89-.05.36.06.72.29.99l2.16,2.63-10.12,7.75-3.73-3.73c-.51-.51-1.34-.51-1.84,0-.51.51-.51,1.33,0,1.84l3.49,3.49-7.7,5.9c-.21.16-.36.38-.45.63l-3.55,10.87-3.14,2.41c-.57.44-.68,1.26-.24,1.83.26.33.64.51,1.04.51.27,0,.55-.09.79-.27l3.43-2.63s0,0,0,0l16.46-12.61,1.7,1.7-3.27,3.27c-.69.69-1.07,1.6-1.07,2.57s.38,1.89,1.07,2.57l.84.84c.69.69,1.6,1.07,2.57,1.07s1.89-.38,2.57-1.07l3.27-3.27,2.53,2.53-15.23,19.89c-.44.57-.33,1.39.24,1.83.24.18.52.27.79.27.39,0,.78-.18,1.04-.51l2.41-3.14,10.86-3.56c.25-.08.47-.24.63-.45l5.9-7.7,3.35,3.35c.25.25.59.38.92.38s.67-.13.92-.38c.51-.51.51-1.33,0-1.84l-3.6-3.6,23.17-30.24c.61-.06,1.21-.15,1.83-.29,2.83-.61,5.42-2.04,7.51-4.12,4.12-4.12,5.49-10.19,3.67-15.7l7.43-7.43c2.67-2.67,2.66-7.03-.02-9.71-2.67-2.67-7.02-2.67-9.69,0ZM41.54,73.08l1.7-6.46,7.95-6.09s.03-.01.04-.03c0,0,.01-.02.02-.02l12.2-9.34s.03-.01.04-.02c.01,0,.02-.02.03-.03l4.47-3.42c.16.75.37,1.49.63,2.22.22.61.51,1.22.83,1.81l-27.91,21.39ZM49.27,56.07l10.5-7.61,1.08,1.39-10.24,7.85-1.34-1.63ZM30.54,76.35l9.32-7.14-1.7,6.46-9.86,7.55,2.24-6.87ZM45.54,84.37c-.39.39-1.07.39-1.46,0l-.84-.84c-.2-.19-.3-.45-.3-.73s.11-.54.3-.73l4.18-4.18s0,0,0,0c0,0,0,0,0,0l4.18-4.18c.2-.2.45-.3.73-.3s.53.11.73.3l.84.84c.2.2.3.45.3.73s-.11.53-.3.73l-8.38,8.38ZM52.5,81.1l3.27-3.27c.69-.69,1.07-1.6,1.07-2.57s-.38-1.89-1.07-2.57l-.83-.84c-1.37-1.37-3.77-1.37-5.15,0l-3.27,3.27-1.45-1.45,25.81-19.78c.4.51.82,1.01,1.29,1.47.78.78,1.65,1.43,2.55,2.01l-19.93,26.02-2.29-2.29ZM61.81,85.21l-6.44,1.7,21.66-28.28c.21.09.4.2.63.28,1.17.43,2.4.71,3.64.86l-19.49,25.45ZM52.09,97.9l-6.86,2.25,7.55-9.86,6.44-1.7-7.13,9.31ZM92.07,53.53c-1.73,1.73-3.88,2.91-6.22,3.42-.7.16-1.36.25-2.04.29-1.75.12-3.57-.16-5.24-.78-.49-.18-.92-.37-1.36-.61-1.17-.59-2.25-1.37-3.21-2.33-.67-.67-1.27-1.41-1.76-2.17-.48-.77-.88-1.56-1.17-2.36-.45-1.24-.72-2.52-.79-3.79-.06-1.18.04-2.35.3-3.49.52-2.36,1.71-4.51,3.43-6.23,2.44-2.44,5.7-3.74,9.01-3.74,1.59,0,3.2.3,4.74.92,1.62.64,3.06,1.59,4.29,2.82,1.25,1.25,2.2,2.7,2.84,4.31,1.88,4.75.78,10.14-2.82,13.74ZM103.17,30.41l-6.67,6.67c-.08-.14-.18-.26-.26-.39-.21-.36-.44-.72-.69-1.06-.14-.19-.27-.39-.42-.57-.33-.42-.68-.83-1.06-1.22-.06-.06-.11-.14-.17-.2-.06-.06-.12-.1-.18-.15-.4-.38-.81-.74-1.24-1.08-.17-.14-.35-.26-.53-.39-.37-.27-.76-.51-1.15-.75-.11-.06-.21-.15-.32-.21l6.67-6.67c1.66-1.66,4.35-1.66,6,0,1.67,1.67,1.68,4.37.02,6.03Z"/>
    </g>
  </g>
</svg>