<?xml version="1.0" encoding="UTF-8"?>
<svg id="Camada_2" xmlns="http://www.w3.org/2000/svg" viewBox="0 0 128 128">
  <defs>
    <style>
      .cls-1 {
        fill: #fff;
      }

      .cls-2 {
        fill: #09f;
      }
    </style>
  </defs>
  <g id="Camada_-_Construção">
    <g>
      <rect class="cls-2" width="128" height="128" rx="20" ry="20"/>
      <g>
        <path class="cls-1" d="M21.83,67.79c4.16,16.9,22.51,31.41,40.06,31.67.24,0,.5,0,.78,0,9.06,0,35.24-2.33,43.78-28.23,1.02-3.1.65-6.48-1.03-9.28-1.67-2.78-4.46-4.69-7.65-5.24l-18.25-3.14c-.7-.12-1.21-.72-1.21-1.43,0-.51.27-.99.71-1.25,3.64-2.18,5.71-6.17,5.39-10.42-.31-4.21-2.93-7.82-6.82-9.42-7.88-3.24-21.14-5-39.56,5.02-18.41,10.02-18.05,24.16-16.19,31.7ZM39.27,38.38c8.94-4.87,17.28-7.31,24.91-7.31,4.37,0,8.52.8,12.41,2.4,3.02,1.24,4.97,3.94,5.21,7.21.25,3.3-1.3,6.29-4.13,7.99-1.22.73-1.97,2.06-1.97,3.48,0,1.98,1.42,3.67,3.37,4l18.25,3.14c2.45.42,4.58,1.88,5.86,4.01,1.29,2.14,1.58,4.74.79,7.12-8.02,24.32-32.09,26.59-42.04,26.43-16.46-.25-33.66-13.85-37.57-29.69-2.9-11.75,2.4-21.98,14.91-28.78Z"/>
        <path class="cls-1" d="M74.64,76.78c2.11,1.75,4.98,2.85,8.1,3.09.42.03.84.05,1.25.05,2.66,0,5.18-.65,7.22-1.87,2.49-1.5,3.97-3.67,4.16-6.13.37-4.89-4.69-9.27-11.28-9.77-3.11-.24-6.12.41-8.47,1.82-2.49,1.5-3.97,3.67-4.16,6.13-.19,2.45.94,4.83,3.18,6.69ZM76.96,66.2c1.63-.98,3.68-1.5,5.87-1.5.35,0,.71.01,1.07.04,5.16.39,9.14,3.52,8.88,6.97-.12,1.59-1.15,3.04-2.9,4.09-1.89,1.14-4.35,1.65-6.93,1.46-2.58-.2-4.93-1.08-6.63-2.49-1.57-1.3-2.37-2.9-2.25-4.48.12-1.59,1.15-3.04,2.9-4.09Z"/>
        <path class="cls-1" d="M62.76,48.34c3.71,0,6.72-3.01,6.72-6.72s-3.01-6.72-6.72-6.72-6.72,3.01-6.72,6.72,3.01,6.72,6.72,6.72ZM62.76,37.51c2.27,0,4.11,1.84,4.11,4.11s-1.84,4.11-4.11,4.11-4.11-1.84-4.11-4.11,1.84-4.11,4.11-4.11Z"/>
        <path class="cls-1" d="M43.84,54.84c3.71,0,6.72-3.01,6.72-6.72s-3.01-6.72-6.72-6.72-6.72,3.01-6.72,6.72,3.01,6.72,6.72,6.72ZM43.84,44.01c2.27,0,4.11,1.84,4.11,4.11s-1.84,4.11-4.11,4.11-4.11-1.84-4.11-4.11,1.84-4.11,4.11-4.11Z"/>
        <path class="cls-1" d="M38.43,75.15c3.7,0,6.72-3.01,6.72-6.72s-3.01-6.72-6.72-6.72-6.72,3.01-6.72,6.72,3.01,6.72,6.72,6.72ZM38.43,64.31c2.27,0,4.11,1.84,4.11,4.11s-1.84,4.11-4.11,4.11-4.11-1.84-4.11-4.11,1.84-4.11,4.11-4.11Z"/>
        <path class="cls-1" d="M47.96,82.43c0,3.71,3.01,6.72,6.72,6.72s6.72-3.01,6.72-6.72-3.01-6.72-6.72-6.72-6.72,3.01-6.72,6.72ZM54.68,78.32c2.27,0,4.11,1.84,4.11,4.11s-1.84,4.11-4.11,4.11-4.11-1.84-4.11-4.11,1.84-4.11,4.11-4.11Z"/>
      </g>
    </g>
  </g>
</svg>