<svg width="253" height="43" viewBox="0 0 253 43" fill="none" xmlns="http://www.w3.org/2000/svg">
<path d="M67.7453 30.8065C67.8295 34.455 66.2922 37.3203 63.3589 39.457C61.287 40.9564 58.923 41.7592 56.4501 42.2581C56.2694 42.2927 56.1308 42.3075 55.9921 42.1321C54.0589 39.8374 52.1281 37.5476 50.1948 35.2577C50.1403 35.1886 50.1057 35.1268 50.0487 35.0354C51.175 34.8008 52.2518 34.4945 53.2593 33.9733C56.512 32.2664 57.6531 29.1812 56.2768 25.7675C55.408 23.5764 53.9351 21.8424 52.1627 20.343C48.6675 17.3542 44.5855 15.5435 40.068 14.7111C37.7609 14.2813 35.4316 14.1973 33.1096 14.6617C32.9438 14.7037 32.8175 14.6815 32.6863 14.5357C30.7184 12.1841 28.7381 9.84739 26.7578 7.50323C26.7306 7.47606 26.7231 7.43407 26.6885 7.37231C27.5029 7.15741 28.3297 7.05366 29.149 6.96968C33.5973 6.48306 37.9639 6.9845 42.2587 8.101C47.3679 9.425 52.1083 11.5493 56.4526 14.5382C60.0246 16.9861 63.146 19.9058 65.4135 23.6308C66.7626 25.8366 67.6859 28.1956 67.7478 30.8041L67.7453 30.8065Z" fill="white"/>
<path d="M41.7215 35.6432C40.4838 35.9075 39.3105 36.0532 38.1347 36.1298C33.4909 36.4213 28.9584 35.742 24.5101 34.4155C21.1238 33.4028 17.8984 32.0219 14.8264 30.2681C11.0737 28.1191 7.69481 25.5032 4.93475 22.1587C3.12772 19.9726 1.68952 17.5938 0.993934 14.8273C0.224088 11.7742 0.535987 8.87424 2.34302 6.22625C3.40744 4.65771 4.84564 3.50662 6.49177 2.61243C8.18989 1.6886 10.0118 1.11306 11.9005 0.710425C12.101 0.675843 12.2074 0.725245 12.3386 0.883335C14.2645 3.16575 16.1829 5.44816 18.1162 7.72316C18.3118 7.95288 18.3736 8.03439 18.0122 8.10356C16.5592 8.40986 15.1977 8.90141 13.9947 9.7882C11.8881 11.3493 11.0762 13.7824 11.7693 16.302C12.3386 18.3818 13.5219 20.0813 15.0022 21.5881C17.386 24.0286 20.2426 25.7428 23.3987 26.9631C26.0548 27.9956 28.8 28.628 31.6566 28.7045C32.8027 28.7194 33.9438 28.6774 35.0701 28.4476C35.4241 28.3711 35.6469 28.4328 35.8846 28.7194C37.6767 30.8684 39.4862 33.0051 41.2933 35.1491C41.417 35.2949 41.5507 35.448 41.724 35.6407L41.7215 35.6432Z" fill="white"/>
<path d="M96.6529 18.8115L94.3508 17.9025C90.608 16.4649 89.5981 15.0791 89.5981 13.3056C89.5981 11.0578 91.4224 9.85974 93.8681 9.85974C96.3138 9.85974 98.2372 11.1986 99.6729 13.9281L104.567 11.1986C103.032 7.60697 99.4823 4.01538 93.6255 4.01538C87.7687 4.01538 83.1175 7.56003 83.1175 13.2587C83.1175 18.4311 86.9568 21.0149 91.6105 22.8799L93.7691 23.695C97.2223 25.0857 98.71 26.1849 98.71 28.6773C98.71 31.6439 96.4078 33.0346 93.7196 33.0346C90.2615 33.0346 88.1029 30.688 87.1449 28.0523L81.8204 30.4953C83.0209 35.4776 87.8678 38.9704 93.8161 38.9704C99.7645 38.9704 105.574 35.6184 105.574 28.7267C105.574 23.8901 102.599 21.2076 96.6455 18.814L96.6529 18.8115Z" fill="white"/>
<path d="M121.224 33.1755C117.624 33.1755 114.359 30.493 114.359 26.0418C114.359 21.5906 117.624 18.9055 121.224 18.9055C123.813 18.9055 125.924 20.2962 127.219 22.2575L131.925 19.2415C129.526 15.1731 125.59 13.113 121.177 13.113C114.602 13.113 108.025 17.6136 108.025 26.0442C108.025 34.4748 114.599 38.9705 121.177 38.9705C125.59 38.9705 129.524 36.8635 131.925 32.8421L127.219 29.826C125.924 31.7923 123.813 33.178 121.224 33.178V33.1755Z" fill="white"/>
<path d="M135.618 4.01294V10.1414H142.047V4.01294H135.618ZM135.618 13.1105V38.9679H142.047V13.1105H135.618Z" fill="white"/>
<path d="M190.124 3.95117V16.9441H190.03C189.406 15.5534 186.524 13.1129 182.064 13.1129C176.259 13.1129 170.066 17.4209 170.066 26.0441C170.066 34.6674 176.259 38.9704 182.064 38.9704C186.524 38.9704 189.406 36.5274 190.03 35.1417H190.171V38.9704H196.599V3.95117H190.121H190.124ZM183.358 33.2224C179.759 33.2224 176.4 30.6855 176.4 26.0416C176.4 21.3978 179.759 18.8585 183.358 18.8585C186.958 18.8585 190.317 21.3484 190.317 26.0416C190.317 30.7349 186.958 33.2224 183.358 33.2224Z" fill="white"/>
<path d="M218.576 13.1106V27.1904C218.576 30.8289 216.516 33.22 213.251 33.22C209.986 33.22 207.924 30.8289 207.924 27.1904V13.1106H201.496V28.2427C201.496 35.8087 205.813 38.968 210.902 38.968C214.645 38.968 217.19 37.2933 218.578 35.0924V38.968H225.007V13.1106H218.578H218.576Z" fill="white"/>
<path d="M241.899 33.1755C238.3 33.1755 235.035 30.493 235.035 26.0418C235.035 21.5906 238.3 18.9055 241.899 18.9055C244.488 18.9055 246.6 20.2962 247.894 22.2575L252.6 19.2415C250.201 15.1731 246.265 13.113 241.849 13.113C235.277 13.113 228.703 17.6136 228.703 26.0442C228.703 34.4748 235.277 38.9705 241.849 38.9705C246.265 38.9705 250.201 36.8635 252.6 32.8421L247.894 29.826C246.6 31.7923 244.488 33.178 241.899 33.178V33.1755Z" fill="white"/>
<path d="M168.365 32.7555V38.9679H148.052V3.95117H167.919V10.1685H154.825V18.3052H165.847V24.4212H154.825V32.758H168.365V32.7555Z" fill="white"/>
</svg>
