<?xml version="1.0" encoding="UTF-8"?>
<svg id="Camada_1" data-name="Camada 1" xmlns="http://www.w3.org/2000/svg" version="1.1" viewBox="0 0 1000 620.36">
  <defs>
    <style>
      .cls-1 {
        fill: #FFFFFF;
        stroke-width: 0px;
      }
    </style>
  </defs>
  <path class="cls-1" d="M999.95,449.18c1.24,54.43-21.63,97.17-65.3,129.05-30.84,22.35-66.03,34.36-102.87,41.81-2.69.52-4.76.72-6.83-1.86-28.77-34.25-57.54-68.4-86.31-102.55-.82-1.04-1.34-1.97-2.17-3.31,16.77-3.52,32.8-8.07,47.81-15.83,48.43-25.46,65.41-71.51,44.91-122.42-12.94-32.7-34.87-58.57-61.26-80.93-52.05-44.6-112.8-71.61-180.06-84.03-34.36-6.42-69.02-7.66-103.59-.72-2.49.62-4.35.31-6.32-1.86-29.28-35.08-58.78-69.96-88.27-104.93-.41-.41-.52-1.03-1.04-1.97,12.11-3.21,24.42-4.76,36.63-6,66.23-7.24,131.22.21,195.17,16.87,76.06,19.77,146.64,51.43,211.32,96.04,53.19,36.53,99.66,80.1,133.39,135.67,20.08,32.91,33.84,68.09,34.77,107Z"/>
  <path class="cls-1" d="M612.5,521.31c-18.42,3.93-35.91,6.11-53.4,7.24-69.13,4.35-136.6-5.8-202.83-25.56-50.4-15.11-98.42-35.7-144.16-61.88-55.88-32.08-106.17-71.09-147.26-120.97-26.91-32.6-48.33-68.09-58.68-109.38C-5.31,165.22-.65,121.96,26.26,82.43c15.84-23.39,37.26-40.57,61.78-53.92C113.29,14.75,140.4,6.16,168.55.16c3-.52,4.55.21,6.52,2.59,28.67,34.05,57.23,68.09,86,102.04,2.9,3.42,3.83,4.66-1.55,5.69-21.63,4.55-41.91,11.9-59.81,25.15-31.36,23.28-43.47,59.61-33.12,97.17,8.48,31.05,26.08,56.4,48.12,78.86,35.5,36.43,78.03,61.99,125.01,80.2,39.53,15.42,80.41,24.84,122.94,25.98,17.08.21,34.05-.41,50.81-3.83,5.28-1.14,8.59-.21,12.11,4.04,26.7,32.08,53.61,63.95,80.51,95.93,1.86,2.17,3.83,4.45,6.41,7.35Z"/>
</svg>